<svg xmlns="http://www.w3.org/2000/svg" viewBox="0 0 640 360" fill="none">
  <defs>
    <linearGradient id="freeBg" x1="0" y1="0" x2="640" y2="360" gradientUnits="userSpaceOnUse">
      <stop stop-color="#059669"/>
      <stop offset="1" stop-color="#047857"/>
    </linearGradient>
  </defs>
  <rect width="640" height="360" fill="url(#freeBg)"/>
  <circle cx="500" cy="90" r="110" fill="#34d399" fill-opacity="0.3"/>
  <circle cx="560" cy="280" r="85" fill="#6ee7b7" fill-opacity="0.2"/>

  <g transform="translate(400, 58)">
    <rect x="0" y="0" width="188" height="124" rx="10" fill="#ffffff" fill-opacity="0.95"/>
    <rect x="0" y="0" width="188" height="24" rx="10" fill="#1a4480"/>
    <rect x="0" y="14" width="188" height="10" fill="#1a4480"/>
    <rect x="12" y="7" width="50" height="5" rx="1" fill="#93c5fd"/>
    <rect x="140" y="6" width="32" height="10" rx="2" fill="#dc2626"/>
    <rect x="12" y="34" width="90" height="4" rx="1" fill="#1a4480" fill-opacity="0.5"/>
    <rect x="12" y="44" width="76" height="3" rx="1" fill="#94a3b8"/>
    <rect x="12" y="54" width="68" height="12" rx="2" fill="#dbeafe" stroke="#1a4480" stroke-width="1.2"/>
    <rect x="12" y="72" width="68" height="12" rx="2" fill="#f8fafc" stroke="#cbd5e1" stroke-width="1.2"/>
    <rect x="12" y="90" width="68" height="12" rx="2" fill="#f8fafc" stroke="#cbd5e1" stroke-width="1.2"/>
    <rect x="138" y="30" width="38" height="82" rx="3" fill="#f1f5f9" stroke="#cbd5e1" stroke-width="1"/>
    <rect x="142" y="36" width="7" height="7" rx="1" fill="#22c55e"/>
    <rect x="153" y="36" width="7" height="7" rx="1" fill="#22c55e"/>
    <rect x="164" y="36" width="7" height="7" rx="1" fill="#d9d9d9"/>
    <rect x="142" y="47" width="7" height="7" rx="1" fill="#e74c3c"/>
    <rect x="153" y="47" width="7" height="7" rx="1" fill="#8e44ad"/>
    <rect x="164" y="47" width="7" height="7" rx="1" fill="#d9d9d9"/>
    <rect x="62" y="124" width="64" height="8" rx="4" fill="#0f172a" fill-opacity="0.2"/>
  </g>

  <text x="40" y="72" fill="white" font-family="Arial, sans-serif" font-size="22" font-weight="700" letter-spacing="1">FREE MOCK</text>
  <text x="40" y="108" fill="#a7f3d0" font-family="Arial, sans-serif" font-size="14" font-weight="600">NTA CBT - Full length</text>
  <text x="40" y="300" fill="white" font-family="Arial, sans-serif" font-size="48" font-weight="800" opacity="0.12">ZERO</text>
</svg>
